<svg viewBox="0 0 45 45" version="1.1" xmlns="http://www.w3.org/2000/svg">
    <!-- Generator: Sketch 52.6 (67491) - http://www.bohemiancoding.com/sketch -->
    <path fill="#1C1C1C" d="M41.9383599,11.9241642 C39.9284282,8.48038286 37.2020843,5.75393639 33.7586105,3.74420974 C30.3146241,1.73438059 26.5548178,0.729722271 22.4765262,0.729722271 C18.3987472,0.729722271 14.6377107,1.7346881 11.1944419,3.74420974 C7.75066059,5.75383389 5.02441913,8.48038286 3.01448747,11.9241642 C1.00486333,15.367843 0,19.1283669 0,23.2056334 C0,28.1033555 1.42892938,32.5075127 4.28750569,36.4192325 C7.14577449,40.3312599 10.8382346,43.0382302 15.3645786,44.5404512 C15.8914579,44.6382416 16.281492,44.5694603 16.5350911,44.3358498 C16.7887927,44.1019318 16.9154897,43.8089706 16.9154897,43.4581961 C16.9154897,43.3996653 16.910467,42.8730936 16.9007289,41.8778658 C16.8906834,40.882638 16.8859681,40.0144148 16.8859681,39.2736061 L16.2128132,39.3900526 C15.7836219,39.4686744 15.2421868,39.5019888 14.588508,39.4925583 C13.9351367,39.4834353 13.2568565,39.4149615 12.55459,39.2876494 C11.8520159,39.1614649 11.1985421,38.8688111 10.593656,38.4103031 C9.98907745,37.9517952 9.5598861,37.3516243 9.30618451,36.6107132 L9.01353075,35.9372507 C8.81846241,35.4888908 8.51135535,34.9908157 8.09179954,34.4448703 C7.67224374,33.8984125 7.24797267,33.5279569 6.81878132,33.3328886 L6.61387244,33.1862029 C6.47733485,33.08872 6.35063781,32.971146 6.2334738,32.8347109 C6.1164123,32.6982758 6.02876993,32.5617382 5.97023918,32.4249956 C5.91160592,32.2881505 5.96019362,32.1759068 6.11651481,32.0878544 C6.27283599,31.999802 6.55534169,31.9570571 6.96526196,31.9570571 L7.55036446,32.0444945 C7.94060364,32.1227063 8.42330296,32.3563168 8.99907745,32.746761 C9.57454442,33.1368977 10.0476082,33.6440958 10.4183713,34.2681505 C10.8673462,35.06831 11.4082688,35.6780138 12.0426765,36.0975697 C12.6765718,36.5171255 13.3156948,36.7265446 13.9594305,36.7265446 C14.6031663,36.7265446 15.1591572,36.6777519 15.6276082,36.580679 C16.0955467,36.4830936 16.5345786,36.3364079 16.9444989,36.1414421 C17.1200911,34.8336744 17.5981777,33.8290161 18.3783485,33.1267496 C17.2663667,33.0098931 16.2666287,32.8338908 15.3786219,32.5998703 C14.4911276,32.3655423 13.5740091,31.9852462 12.6278815,31.4579569 C11.6812415,30.9313851 10.8959453,30.2775013 10.2717882,29.497433 C9.64752847,28.7169546 9.13520501,27.6923077 8.73553531,26.4244148 C8.33566059,25.1560093 8.13567198,23.692843 8.13567198,22.0345059 C8.13567198,19.6732872 8.90651481,17.6639706 10.4478929,16.0054284 C9.72584282,14.2302348 9.79400911,12.2401892 10.6525968,10.0354968 C11.2184282,9.85969949 12.0575399,9.99162432 13.1695216,10.4304512 C14.2817084,10.8694831 15.0960137,11.2455765 15.6132574,11.5573988 C16.1305011,11.8691186 16.5449317,12.1332758 16.857164,12.3475127 C18.6720273,11.840417 20.5449089,11.5868179 22.4763212,11.5868179 C24.4077335,11.5868179 26.2810251,11.840417 28.0959909,12.3475127 L29.2080752,11.6454512 C29.9685649,11.1770002 30.8666173,10.7477063 31.9000797,10.3574671 C32.9341572,9.96743298 33.7248861,9.86000701 34.2714465,10.0358043 C35.1491002,12.2405993 35.2273121,14.2305423 34.5050569,16.0057359 C36.0463326,17.6642781 36.8174829,19.6741072 36.8174829,22.0348134 C36.8174829,23.6931505 36.6167768,25.1609296 36.2175171,26.4390731 C35.8177449,27.7174216 35.3010137,28.7410435 34.6671185,29.5120913 C34.0325057,30.2830366 33.2421868,30.9317952 32.2960592,31.4582644 C31.3497267,31.9851437 30.4323007,32.3654398 29.5448064,32.5997678 C28.6569021,32.8340958 27.657164,33.0102006 26.5451822,33.1272621 C27.5593736,34.0049159 28.0665718,35.3902804 28.0665718,37.2827405 L28.0665718,43.457376 C28.0665718,43.8081505 28.1885535,44.1010093 28.4327221,44.3350298 C28.6765831,44.5686403 29.061697,44.6374216 29.5885763,44.5395286 C34.1155353,43.0375127 37.8079954,40.3304398 40.6661617,36.4184125 C43.5240205,32.5066927 44.9534624,28.1025355 44.9534624,23.2048134 C44.9524374,19.1280594 43.9470615,15.367843 41.9383599,11.9241642 Z" id="Path"></path>
</svg>